<?xml version="1.0" standalone="no"?>
<!DOCTYPE svg PUBLIC "-//W3C//DTD SVG 20010904//EN"
 "http://www.w3.org/TR/2001/REC-SVG-20010904/DTD/svg10.dtd">
<svg version="1.0" xmlns="http://www.w3.org/2000/svg"
 width="300.000000pt" height="300.000000pt" viewBox="0 0 300.000000 300.000000"
 preserveAspectRatio="xMidYMid meet">
<metadata>
Created by potrace 1.10, written by Peter Selinger 2001-2011
</metadata>
<g transform="translate(0.000000,300.000000) scale(0.100000,-0.100000)"
fill="#000000" stroke="none">
<path d="M1437 2672 c-32 -20 -37 -47 -7 -37 17 5 20 2 20 -24 0 -21 -5 -31
-15 -31 -8 0 -15 -7 -15 -16 0 -12 6 -15 23 -10 12 3 33 6 45 6 15 0 22 5 19
13 -2 6 -10 11 -16 10 -7 -2 -11 15 -11 46 0 28 -3 52 -8 55 -4 2 -20 -3 -35
-12z"/>
<path d="M1582 2668 c-15 -15 -16 -90 0 -106 20 -20 56 -14 74 14 14 20 15 33
8 62 -8 31 -14 37 -39 40 -17 2 -36 -3 -43 -10z m50 -63 c-7 -38 -32 -32 -32
8 0 19 3 37 7 41 13 12 30 -23 25 -49z"/>
<path d="M1287 2650 c-32 -25 -36 -44 -7 -35 17 5 20 2 20 -24 0 -17 -4 -31
-10 -31 -5 0 -10 -7 -10 -16 0 -11 5 -14 16 -10 9 3 27 6 40 6 15 0 24 6 24
15 0 8 -7 15 -15 15 -10 0 -15 11 -16 33 0 17 -4 40 -8 50 -6 17 -8 17 -34 -3z"/>
<path d="M1758 2653 c-22 -5 -24 -33 -3 -33 8 0 15 -4 15 -9 0 -21 -13 -41
-26 -41 -8 0 -14 -6 -14 -14 0 -9 16 -17 41 -21 46 -8 62 1 36 20 -9 7 -15 19
-13 26 2 8 7 29 10 47 6 33 -1 37 -46 25z"/>
<path d="M1110 2601 c-13 -25 -13 -44 2 -75 25 -56 88 -40 88 23 0 61 -65 98
-90 52z m60 -58 c0 -13 -5 -23 -10 -23 -16 0 -34 46 -26 67 7 17 8 17 22 -1 8
-11 14 -30 14 -43z"/>
<path d="M1908 2613 c-10 -2 -18 -11 -18 -20 0 -10 6 -13 16 -9 13 5 15 2 10
-16 -3 -13 -6 -26 -6 -30 0 -5 -9 -8 -21 -8 -32 0 -18 -21 24 -35 37 -13 64
-2 37 15 -10 6 -10 18 -1 53 6 25 11 48 11 51 0 7 -26 6 -52 -1z"/>
<path d="M976 2546 c-24 -38 -17 -63 10 -36 7 7 14 3 22 -14 9 -21 8 -27 -5
-34 -9 -5 -13 -14 -9 -20 8 -14 88 17 83 32 -2 6 -11 10 -18 9 -9 -2 -21 13
-30 39 -19 51 -31 57 -53 24z"/>
<path d="M2037 2558 c-9 -7 -21 -27 -26 -45 -11 -37 9 -73 39 -73 29 0 60 39
60 75 0 50 -35 70 -73 43z m43 -36 c0 -25 -25 -56 -38 -48 -11 7 -6 31 11 54
14 18 27 15 27 -6z"/>
<path d="M2423 2537 c-35 -20 -171 -154 -178 -176 -3 -12 0 -34 7 -49 14 -27
13 -28 -76 -112 l-91 -85 4 -133 c3 -128 2 -135 -20 -158 -12 -13 -19 -27 -16
-31 4 -3 23 11 42 33 l34 39 1 117 0 116 87 81 c60 54 91 77 98 70 7 -7 -17
-35 -73 -87 l-83 -77 1 -98 0 -97 26 16 c15 10 29 13 34 8 5 -5 -15 -28 -48
-54 -31 -25 -61 -54 -66 -65 -5 -11 -27 -35 -48 -54 l-38 -33 0 61 c0 50 4 63
20 73 18 12 20 24 20 121 0 68 -5 115 -12 128 -12 19 -7 26 47 75 35 32 56 57
50 61 -46 36 -161 104 -211 126 -123 54 -373 94 -422 68 l-22 -12 -2 -596 c-2
-466 -6 -597 -15 -601 -10 -3 -13 120 -13 592 l0 596 -23 15 c-21 14 -33 14
-111 0 -170 -30 -316 -94 -459 -201 -107 -81 -174 -161 -232 -279 -97 -197
-96 -389 4 -521 71 -95 191 -151 302 -141 l57 5 5 -40 c15 -112 148 -204 246
-170 47 17 37 -2 -33 -59 -57 -47 -67 -61 -101 -143 -21 -50 -57 -133 -81
-183 -23 -51 -39 -95 -34 -98 5 -3 30 3 57 14 26 10 102 38 167 61 114 40 124
46 205 120 155 142 544 460 562 460 9 0 43 25 74 55 32 30 63 55 69 55 14 1
96 77 96 90 0 5 25 30 56 57 31 26 61 59 67 73 11 24 11 24 15 -15 6 -62 -17
-194 -42 -251 -29 -64 -67 -84 -160 -84 l-66 0 0 -75 c0 -62 -3 -75 -16 -75
-14 0 -16 12 -13 85 3 62 8 88 19 95 8 5 47 9 86 7 78 -2 101 9 130 65 14 28
37 159 28 167 -2 2 -18 -8 -34 -24 -20 -19 -30 -39 -30 -58 0 -48 -16 -67 -58
-67 -29 0 -50 -10 -94 -46 -32 -25 -58 -51 -58 -58 0 -29 -41 -66 -73 -67 -47
-1 -56 -6 -171 -102 l-106 -88 -2 -201 c-2 -150 -6 -202 -15 -206 -10 -3 -13
38 -13 182 0 102 -4 186 -8 186 -28 0 -32 -30 -32 -223 0 -154 -3 -198 -12
-195 -10 4 -14 52 -16 188 -2 181 -3 183 -22 165 -11 -10 -20 -26 -20 -37 0
-11 -7 -18 -20 -18 -24 0 -26 -13 -5 -30 12 -10 15 -38 15 -136 0 -132 8 -165
46 -183 28 -13 51 -6 65 20 5 11 15 19 22 19 7 0 23 9 35 20 20 19 22 31 22
129 l0 109 58 50 57 50 109 4 c107 3 108 3 137 36 16 18 29 39 29 46 0 8 13
17 29 21 51 11 101 81 101 141 0 16 13 36 36 56 69 61 112 193 120 373 3 61 8
134 11 163 6 67 -1 94 -35 134 -16 18 -36 53 -46 78 -9 25 -29 62 -42 83 -14
21 -24 42 -22 45 2 4 26 29 55 55 50 46 53 48 75 33 16 -10 33 -13 50 -8 32 9
176 145 189 179 13 35 11 80 -5 111 -17 31 -91 105 -123 121 -28 14 -82 14
-110 -2z m144 -90 c45 -46 53 -59 53 -92 0 -35 -7 -45 -77 -111 -43 -41 -81
-74 -85 -74 -21 0 -1 27 67 91 41 39 75 78 75 86 0 8 -4 13 -9 11 -16 -5 -148
-135 -153 -150 -4 -11 -8 -11 -21 0 -13 12 -5 23 69 94 61 58 82 84 74 92 -8
8 -34 -12 -92 -71 -71 -73 -98 -91 -98 -64 0 5 36 44 80 87 79 77 92 94 68 94
-16 0 -154 -130 -160 -150 -4 -13 -7 -13 -23 0 -16 13 -11 20 66 91 63 58 81
80 73 89 -9 9 -31 -7 -90 -64 -43 -41 -82 -73 -86 -70 -13 8 2 27 80 98 94 86
114 87 189 13z m-1159 -134 c-2 -36 -7 -49 -20 -51 -20 -4 -26 32 -8 43 17 10
11 25 -9 25 -20 0 -71 -53 -71 -73 0 -24 44 -57 77 -57 l33 0 0 -72 c-1 -66
-2 -71 -15 -54 -8 11 -15 37 -15 58 0 33 -3 38 -23 38 -22 0 -77 -46 -77 -65
0 -15 -32 -45 -48 -45 -23 0 -52 30 -52 55 0 33 24 49 64 42 25 -4 39 -1 49
11 14 15 13 19 -3 39 -11 15 -27 21 -45 20 -22 -1 -34 5 -49 28 -12 17 -29 30
-38 30 -36 0 -22 19 27 36 70 24 86 23 52 -5 -32 -26 -28 -56 8 -56 16 0 26 9
35 30 17 42 56 70 97 70 l34 0 -3 -47z m216 31 c3 -9 6 -82 6 -163 0 -147 0
-148 23 -147 13 1 22 -5 22 -14 0 -10 -8 -14 -22 -13 -23 3 -23 1 -23 -122 0
-118 1 -125 20 -125 11 0 20 -5 20 -11 0 -6 -9 -13 -20 -16 -18 -5 -20 -14
-20 -95 l0 -89 28 3 27 3 3 156 c2 130 0 158 -13 169 -18 15 -20 51 -3 68 17
17 54 15 72 -4 21 -21 20 -40 -4 -64 -18 -18 -20 -33 -20 -179 0 -180 -2 -184
-72 -179 l-43 3 -3 403 c-2 394 -3 402 -22 402 -20 0 -20 -7 -20 -435 l0 -435
23 0 c30 0 47 -18 47 -48 0 -15 5 -22 13 -19 7 2 11 20 10 46 -2 35 1 41 19
41 17 0 19 -4 14 -25 -8 -31 -3 -31 34 -3 29 21 30 24 30 110 0 72 3 88 15 88
12 0 15 -14 15 -67 0 -65 0 -66 20 -48 11 10 20 28 20 40 0 13 7 28 15 35 10
8 15 31 15 71 0 56 -1 58 -27 61 l-28 3 -3 138 c-2 126 -4 137 -21 137 -27 0
-43 24 -39 62 2 27 0 32 -14 30 -55 -9 -83 67 -33 90 21 9 28 8 45 -7 11 -10
20 -28 20 -41 0 -13 5 -26 11 -29 5 -4 9 -21 7 -38 -3 -32 -2 -32 42 -32 l45
0 3 53 3 52 -40 0 c-32 0 -44 5 -58 26 -10 15 -31 39 -47 54 -35 35 -38 76 -6
102 29 23 55 23 80 -2 26 -26 26 -75 -1 -93 -18 -13 -19 -18 -8 -35 10 -15 26
-22 59 -24 l45 -3 3 -68 c3 -76 -7 -97 -44 -97 -24 0 -24 0 -24 -124 l0 -125
28 -3 c26 -3 27 -5 30 -77 l3 -74 34 33 35 34 0 108 c0 67 -5 116 -12 127 -9
15 -9 25 0 45 15 34 66 37 83 5 13 -26 -2 -69 -26 -69 -13 0 -15 -19 -15 -119
l0 -119 -35 -26 c-19 -15 -35 -33 -35 -41 0 -8 -29 -38 -65 -67 -36 -28 -65
-55 -65 -59 0 -8 -165 -149 -174 -149 -3 0 -6 25 -6 55 0 48 -2 55 -20 55 -18
0 -20 -7 -20 -74 0 -53 -4 -77 -15 -86 -13 -11 -15 50 -15 539 l0 551 44 0
c31 0 46 -5 50 -16z m319 -55 c23 -12 59 -33 80 -46 37 -24 38 -25 21 -44 -9
-10 -28 -19 -41 -19 -22 0 -23 -4 -23 -62 0 -60 -1 -62 -50 -114 -50 -52 -50
-53 -50 -118 0 -64 1 -66 26 -66 31 0 28 -24 -5 -28 -40 -6 -51 14 -51 97 l0
77 50 49 50 49 0 96 0 96 -30 11 c-16 6 -30 18 -30 27 0 20 3 20 53 -5z m-33
-71 c0 -4 -6 -5 -12 -3 -70 24 -69 24 -58 46 12 21 12 21 41 -7 16 -15 29 -31
29 -36z m-805 36 c44 -17 51 -90 11 -123 -27 -23 -17 -54 38 -115 l53 -60 26
20 c14 10 31 32 38 47 15 36 53 52 90 37 52 -22 58 -92 9 -122 -26 -16 -26
-49 0 -71 40 -34 13 -97 -41 -97 -58 0 -79 63 -34 102 31 27 31 48 -1 71 -24
18 -25 18 -59 -3 -34 -21 -35 -24 -35 -81 0 -55 3 -63 38 -101 l38 -40 62 31
c34 17 64 31 67 31 3 0 5 -59 5 -131 0 -114 -2 -130 -14 -119 -8 6 -16 32 -18
56 l-3 45 -47 -33 c-26 -18 -48 -38 -48 -45 0 -19 -39 -41 -61 -36 -12 3 -26
16 -31 29 -16 35 15 68 58 61 48 -8 134 52 134 93 0 36 0 36 -50 10 -58 -29
-73 -26 -120 30 l-41 49 2 78 3 78 -52 56 c-35 39 -52 65 -52 83 0 16 -7 29
-17 33 -35 12 -53 36 -53 70 0 55 50 88 105 67z m-148 -76 c-14 -7 -12 -12 9
-33 29 -29 31 -58 4 -85 -15 -15 -20 -33 -20 -77 0 -51 -3 -59 -32 -83 -29
-25 -32 -31 -29 -82 2 -51 0 -57 -29 -82 -42 -35 -73 -33 -117 8 -75 70 -70
68 -88 39 -9 -13 -19 -23 -21 -20 -6 6 18 70 33 85 7 7 14 19 14 25 1 7 2 17
4 22 1 6 3 18 3 28 3 23 19 22 27 -3 3 -11 14 -20 23 -20 24 0 62 -41 62 -67
0 -13 -9 -32 -19 -42 -19 -19 -19 -20 -2 -35 14 -13 24 -14 45 -7 24 10 26 14
26 75 0 62 1 66 35 92 32 24 35 31 35 75 0 27 -4 49 -10 49 -18 0 -50 39 -50
61 0 28 103 125 109 102 1 -9 -4 -20 -12 -25z m1407 13 c3 -5 -26 -37 -64 -71
-39 -34 -70 -69 -70 -77 0 -8 14 -35 31 -59 17 -25 29 -47 27 -50 -3 -2 -23
12 -46 32 -34 29 -42 42 -42 69 0 29 10 43 72 99 74 67 83 73 92 57z m-1504
-164 c18 -32 2 -72 -35 -89 -22 -10 -30 -8 -53 9 -46 34 -39 93 13 113 28 10
57 -2 75 -33z m202 -14 c10 -9 18 -27 18 -40 0 -14 9 -36 20 -50 16 -21 20
-41 20 -109 0 -73 3 -85 20 -94 32 -17 43 -47 30 -80 -20 -48 -85 -57 -118
-17 -7 9 -21 13 -33 10 -17 -5 -20 -2 -17 13 2 10 11 18 20 18 10 -1 19 8 22
22 4 13 15 28 26 34 17 9 20 21 20 87 0 65 -3 80 -22 100 -12 13 -29 23 -39
23 -17 0 -49 35 -49 52 0 12 39 48 52 48 6 0 20 -7 30 -17z m-22 -133 c26 -26
26 -61 -1 -86 -70 -66 -78 -78 -81 -123 l-3 -46 -107 -2 c-84 -1 -111 -5 -123
-17 -41 -41 -115 -8 -115 50 0 63 83 86 122 34 21 -29 24 -30 110 -30 l88 0 0
38 c0 26 7 45 19 56 19 17 19 18 0 37 -26 26 -25 74 3 93 31 22 64 20 88 -4z
m1276 -36 c49 -24 74 -63 74 -118 0 -38 -6 -52 -32 -82 l-33 -35 -84 85 -85
85 20 22 c23 27 74 59 92 59 8 0 29 -7 48 -16z m-100 -193 l78 -83 -44 -39
-45 -38 -85 85 -85 85 45 40 c25 21 48 38 51 36 4 -1 42 -40 85 -86z m-421 29
c0 -22 -29 -18 -33 3 -3 14 1 18 15 15 10 -2 18 -10 18 -18z m296 -141 l82
-90 -20 -21 -20 -20 -86 89 -86 88 21 23 c12 12 22 22 24 22 1 0 39 -41 85
-91z m-1276 21 c4 -6 65 -10 149 -10 l143 0 56 -59 57 -60 0 -86 c0 -72 3 -91
20 -112 25 -33 25 -54 -1 -87 -26 -33 -68 -34 -98 -2 -32 34 -25 75 16 101 32
20 32 22 33 95 l0 74 -52 53 -52 53 -130 0 c-72 0 -144 5 -161 11 -35 13 -69
8 -100 -15 -20 -14 -20 -15 3 -45 12 -17 22 -38 22 -48 -1 -14 -8 -10 -30 16
-30 35 -66 121 -50 121 4 0 10 -6 13 -12 3 -10 11 -9 33 4 32 18 119 24 129 8z
m1199 -97 l76 -78 -46 -41 -46 -42 -73 77 c-40 42 -74 80 -74 84 -2 6 77 76
85 77 1 0 36 -35 78 -77z m-649 55 c43 -19 47 -100 5 -113 -27 -9 -28 -61 -1
-70 10 -3 24 -19 31 -36 11 -27 10 -34 -7 -57 -25 -33 -76 -41 -104 -16 -33
30 -17 114 22 114 19 0 8 50 -16 74 -32 32 -32 60 0 91 27 28 34 30 70 13z
m-294 -86 c14 -16 33 -31 43 -35 22 -9 30 -31 22 -62 -8 -32 -50 -44 -75 -21
-14 12 -40 16 -117 16 -75 0 -109 5 -140 19 -47 22 -72 67 -55 99 10 18 19 19
153 16 143 -4 143 -4 169 -32z m812 -80 l68 -68 -287 -239 c-157 -131 -294
-250 -305 -263 l-19 -24 -20 23 c-22 27 -35 63 -26 77 6 10 -62 42 -89 42 -8
0 -15 4 -15 10 0 5 89 81 198 169 108 88 247 200 307 250 61 50 112 90 115 91
3 0 36 -31 73 -68z m335 -45 c2 -10 -3 -17 -12 -17 -18 0 -29 16 -21 31 9 14
29 6 33 -14z m-1128 -73 c23 -52 24 -64 10 -64 -11 0 -49 75 -50 98 0 28 22 9
40 -34z m295 -91 c-28 -25 -55 -29 -86 -13 -32 17 -22 32 16 24 31 -5 39 -2
63 24 25 28 27 29 30 9 3 -14 -6 -30 -23 -44z m823 15 c26 -26 7 -78 -28 -78
-9 0 -25 9 -35 20 -37 41 24 97 63 58z m-215 -14 c9 -9 -4 -34 -18 -34 -14 0
-27 25 -18 34 4 3 12 6 18 6 6 0 14 -3 18 -6z m183 -109 c-16 -12 -54 -15
-177 -15 l-157 0 -11 -29 c-14 -33 -78 -98 -87 -88 -4 4 1 17 10 29 9 13 30
44 47 71 l31 47 181 0 c162 -1 180 -2 163 -15z m-98 -87 c-3 -9 -37 -15 -104
-18 l-100 -5 -60 -52 c-34 -30 -61 -47 -63 -41 -2 7 25 38 60 70 l64 58 103 0
c79 0 103 -3 100 -12z m-863 -100 c14 -6 25 -17 25 -23 0 -7 11 -29 25 -50 15
-20 25 -38 23 -39 -10 -7 -203 -75 -205 -73 -7 8 84 197 94 197 7 0 24 -5 38
-12z"/>
<path d="M1212 2113 c2 -10 10 -18 18 -18 8 0 16 8 18 18 2 12 -3 17 -18 17
-15 0 -20 -5 -18 -17z"/>
<path d="M1727 2313 c-13 -12 -7 -41 10 -47 21 -8 48 17 40 38 -6 16 -38 22
-50 9z"/>
<path d="M1046 2217 c-21 -16 -18 -45 7 -61 37 -23 77 35 41 61 -10 7 -21 13
-24 13 -3 0 -14 -6 -24 -13z"/>
<path d="M1307 2024 c-11 -11 -8 -52 4 -59 5 -4 21 -4 35 -1 20 5 25 12 22 34
-2 20 -9 28 -28 30 -14 2 -29 0 -33 -4z"/>
<path d="M1304 1835 c-8 -19 3 -35 26 -35 19 0 34 25 24 41 -8 14 -44 10 -50
-6z"/>
<path d="M904 2115 c-8 -21 2 -45 19 -45 8 0 20 7 27 15 10 12 10 18 0 30 -7
8 -19 15 -27 15 -7 0 -16 -7 -19 -15z"/>
<path d="M710 1855 c-25 -30 15 -70 45 -45 19 16 19 25 -1 44 -19 20 -28 20
-44 1z"/>
<path d="M775 2010 c-8 -25 1 -40 24 -40 28 0 46 26 31 45 -18 21 -48 19 -55
-5z"/>
<path d="M1079 1684 c-17 -21 0 -49 32 -49 27 0 37 28 19 50 -16 19 -34 19
-51 -1z"/>
<path d="M970 1855 c-15 -18 -7 -43 16 -52 24 -9 46 24 33 48 -12 23 -32 24
-49 4z"/>
<path d="M650 1670 c-14 -27 4 -52 34 -48 31 4 30 62 -1 66 -14 2 -26 -4 -33
-18z"/>
<path d="M2341 1779 c0 -9 -15 -31 -33 -48 -21 -20 -27 -31 -17 -31 26 0 61
45 56 72 -2 12 -5 16 -6 7z"/>
<path d="M2110 1696 c0 -18 17 -29 30 -21 8 5 7 11 -1 21 -15 18 -29 18 -29 0z"/>
<path d="M2215 1600 c-10 -17 22 -47 35 -34 7 7 4 16 -9 28 -14 12 -21 14 -26
6z"/>
<path d="M2180 1556 c0 -18 17 -29 30 -21 8 5 7 11 -1 21 -15 18 -29 18 -29 0z"/>
<path d="M1168 1219 c-24 -14 -23 -46 3 -59 37 -20 67 28 37 58 -14 14 -18 14
-40 1z"/>
<path d="M2010 1403 c0 -5 4 -14 9 -22 11 -17 32 -5 24 14 -5 15 -33 21 -33 8z"/>
<path d="M1975 1380 c-7 -12 11 -40 26 -40 14 0 10 26 -5 39 -10 9 -16 9 -21
1z"/>
<path d="M1314 1476 c-10 -26 4 -48 28 -44 17 2 23 10 23 28 0 18 -6 26 -23
28 -13 2 -25 -3 -28 -12z"/>
<path d="M1303 1294 c-14 -38 38 -67 60 -33 15 24 1 49 -28 49 -15 0 -28 -7
-32 -16z"/>
<path d="M770 1427 c0 -7 12 -24 26 -38 23 -21 36 -24 134 -27 100 -4 109 -3
119 16 20 37 -12 49 -151 56 -104 5 -128 4 -128 -7z"/>
<path d="M1074 1359 c-3 -6 -2 -15 4 -21 13 -13 32 -2 32 18 0 16 -26 19 -36
3z"/>
<path d="M1618 1132 c-130 -108 -253 -211 -275 -229 -22 -19 -32 -32 -23 -32
14 -1 109 75 413 328 123 103 153 132 130 130 -5 0 -114 -89 -245 -197z"/>
<path d="M1773 1191 c-29 -26 -53 -51 -53 -55 0 -10 119 86 119 97 2 15 -16 5
-66 -42z"/>
<path d="M1460 929 c-66 -55 -103 -85 -113 -91 -6 -4 -9 -10 -5 -13 5 -5 93
62 153 116 20 19 -11 8 -35 -12z"/>
<path d="M1180 749 c-41 -37 -42 -39 -12 -22 36 19 68 50 61 58 -3 2 -25 -14
-49 -36z"/>
<path d="M841 2464 c-14 -31 -4 -55 14 -31 11 15 13 14 25 -9 12 -22 12 -27 0
-34 -10 -6 -11 -13 -5 -19 7 -7 21 -3 43 10 36 23 41 39 14 39 -11 0 -25 14
-35 35 -20 41 -39 45 -56 9z"/>
<path d="M725 2386 c-10 -14 -14 -33 -11 -42 6 -16 8 -15 20 1 13 18 14 18 24
-2 6 -11 8 -29 5 -41 -7 -27 1 -28 38 -1 33 23 40 54 11 45 -14 -5 -26 4 -44
30 l-26 36 -17 -26z"/>
<path d="M610 2281 c-12 -24 -13 -51 -1 -51 5 0 12 7 15 16 6 15 8 15 26 -1
12 -11 18 -25 15 -36 -10 -30 10 -29 39 1 27 29 28 63 2 41 -9 -8 -20 -2 -41
19 -34 35 -41 37 -55 11z"/>
<path d="M515 2161 c-18 -36 -10 -65 11 -36 13 18 14 18 34 0 11 -10 17 -22
14 -26 -3 -5 -2 -14 2 -20 4 -7 15 -1 30 17 30 37 31 58 3 49 -15 -5 -29 1
-49 20 l-28 27 -17 -31z"/>
<path d="M503 2054 c-7 -18 17 -38 31 -24 11 11 1 40 -14 40 -6 0 -13 -7 -17
-16z"/>
<path d="M2477 2064 c-14 -15 -6 -34 14 -34 14 0 19 5 17 17 -3 18 -20 27 -31
17z"/>
<path d="M432 1988 c-6 -6 -12 -29 -12 -49 0 -70 67 -86 91 -22 20 52 -42 108
-79 71z m46 -50 c-3 -34 -20 -42 -26 -13 -5 22 5 45 18 45 7 0 10 -14 8 -32z"/>
<path d="M2522 1980 c-13 -11 -21 -24 -17 -30 5 -8 11 -8 19 -1 17 14 26 4 26
-30 0 -29 16 -47 29 -33 11 13 -9 114 -22 114 -7 -1 -22 -9 -35 -20z"/>
<path d="M392 1764 c-32 -13 -37 -42 -6 -30 10 4 14 -2 14 -19 0 -16 -6 -25
-15 -25 -8 0 -15 -7 -15 -15 0 -10 11 -15 35 -15 19 0 38 0 42 -1 4 0 9 4 11
10 2 6 -4 11 -13 11 -13 0 -16 9 -14 45 2 24 1 46 -2 49 -2 2 -19 -2 -37 -10z"/>
<path d="M2592 1764 c-25 -17 -29 -34 -7 -34 8 0 15 -9 15 -20 0 -11 -4 -20
-10 -20 -5 0 -10 -7 -10 -15 0 -11 11 -15 40 -15 29 0 40 4 40 15 0 8 -7 15
-15 15 -11 0 -15 12 -15 45 0 49 -5 53 -38 29z"/>
<path d="M368 1533 c-10 -2 -18 -11 -18 -20 0 -10 6 -14 20 -10 17 4 20 0 20
-24 0 -26 -4 -29 -30 -29 -20 0 -30 -5 -30 -15 0 -12 16 -15 80 -15 64 0 80 3
80 15 0 10 -11 15 -35 15 -35 0 -35 0 -35 45 0 47 -5 50 -52 38z"/>
<path d="M2584 1515 c-33 -50 11 -119 59 -93 25 13 36 48 25 78 -17 46 -58 54
-84 15z m54 -34 c5 -35 -15 -50 -26 -20 -5 13 -7 30 -4 37 7 19 27 8 30 -17z"/>
<path d="M370 1305 c0 -12 16 -15 80 -15 64 0 80 3 80 15 0 12 -16 15 -80 15
-64 0 -80 -3 -80 -15z"/>
<path d="M2557 1314 c-16 -16 -5 -25 26 -22 17 2 31 8 30 13 -3 12 -46 19 -56
9z"/>
<path d="M554 1246 c-11 -8 -43 -16 -70 -18 -35 -2 -49 -7 -49 -18 0 -22 125
-27 137 -6 12 22 45 20 60 -4 7 -11 19 -20 26 -20 24 0 25 31 2 56 -27 28 -74
32 -106 10z"/>
<path d="M2517 1224 c-17 -18 -3 -25 43 -22 28 2 51 8 53 13 2 11 -85 20 -96
9z"/>
<path d="M565 1138 c-11 -7 -40 -15 -65 -18 -31 -3 -45 -10 -45 -20 0 -23 81
-25 122 -3 33 17 33 17 87 -12 52 -28 57 -29 98 -16 24 7 66 16 93 19 35 5 50
12 50 22 0 23 -90 25 -138 4 -39 -18 -39 -18 -87 9 -52 29 -84 33 -115 15z"/>
<path d="M2412 1114 c2 -8 6 -15 11 -15 4 1 45 1 92 1 69 0 85 3 85 15 0 12
-17 15 -96 15 -81 0 -95 -2 -92 -16z"/>
<path d="M776 1026 c-16 -13 -25 -29 -22 -35 10 -16 43 -13 50 4 6 17 42 20
51 5 8 -14 102 -13 111 1 9 16 -16 29 -43 23 -12 -3 -32 1 -45 10 -31 22 -68
19 -102 -8z"/>
<path d="M2500 1025 c0 -13 12 -15 78 -13 43 2 77 7 77 13 0 6 -34 11 -77 13
-66 2 -78 0 -78 -13z"/>
<path d="M2327 1012 c-38 -42 -11 -105 43 -105 62 0 90 74 43 111 -24 18 -67
15 -86 -6z m63 -28 c11 -12 10 -18 -3 -31 -22 -23 -52 0 -36 28 12 23 22 24
39 3z"/>
<path d="M395 1000 c-14 -23 11 -30 116 -30 102 0 109 1 109 20 0 19 -7 20
-109 20 -63 0 -112 -4 -116 -10z"/>
<path d="M695 940 c-24 -16 -47 -20 -118 -20 -78 0 -88 -2 -85 -17 3 -15 15
-17 103 -14 65 2 106 8 119 17 26 18 45 18 65 0 18 -16 90 -24 109 -12 20 12
-6 38 -30 31 -10 -4 -33 2 -52 14 -42 26 -73 26 -111 1z"/>
<path d="M960 944 c0 -12 10 -14 47 -12 66 4 70 28 4 28 -39 0 -51 -4 -51 -16z"/>
<path d="M2490 910 c0 -18 5 -21 38 -18 25 2 37 8 37 18 0 10 -12 16 -37 18
-33 3 -38 0 -38 -18z"/>
<path d="M2320 833 c-42 -22 -79 -87 -63 -112 17 -26 37 -18 44 19 13 64 73
81 110 31 15 -21 30 -29 49 -29 35 1 50 -8 50 -31 0 -36 -23 -40 -206 -43
-151 -3 -179 -5 -179 -18 0 -13 29 -15 193 -18 l192 -2 25 24 c14 14 25 37 25
51 0 35 -50 85 -84 85 -14 0 -26 4 -26 10 0 13 -38 37 -70 45 -15 3 -39 -2
-60 -12z"/>
<path d="M785 820 c-3 -5 0 -13 8 -15 24 -10 187 -1 187 10 0 14 -186 19 -195
5z"/>
<path d="M515 790 c-12 -20 4 -25 72 -25 52 1 68 4 68 15 0 11 -16 16 -67 18
-38 2 -69 -1 -73 -8z"/>
<path d="M2140 765 c0 -8 5 -15 10 -16 38 -3 68 -2 78 5 22 14 1 26 -44 26
-32 0 -44 -4 -44 -15z"/>
<path d="M880 704 c0 -11 8 -14 32 -12 46 4 49 28 4 28 -26 0 -36 -4 -36 -16z"/>
<path d="M1957 714 c-18 -18 16 -24 134 -24 108 0 129 2 129 15 0 13 -21 15
-128 15 -71 0 -132 -3 -135 -6z"/>
<path d="M605 670 c-3 -5 0 -13 8 -16 23 -9 177 0 180 11 3 14 -179 19 -188 5z"/>
<path d="M1450 665 c0 -10 10 -15 30 -15 20 0 30 5 30 15 0 10 -10 15 -30 15
-20 0 -30 -5 -30 -15z"/>
<path d="M745 610 c-13 -21 11 -31 66 -28 40 2 54 7 54 18 0 19 -109 28 -120
10z"/>
<path d="M1872 593 c3 -16 15 -18 98 -18 78 0 95 3 95 15 0 12 -19 16 -98 18
-90 2 -98 1 -95 -15z"/>
<path d="M1023 553 c-13 -2 -23 -9 -23 -14 0 -15 262 -7 268 9 3 9 -23 12
-110 11 -62 -1 -123 -4 -135 -6z"/>
<path d="M1274 525 c-16 -25 -13 -55 5 -55 6 0 15 9 21 20 13 24 38 26 55 3 7
-10 19 -14 29 -10 14 6 15 10 5 29 -16 31 -28 38 -66 38 -24 0 -37 -7 -49 -25z"/>
<path d="M2155 540 c-14 -22 9 -30 86 -30 71 0 80 2 77 18 -3 14 -16 17 -80
20 -45 2 -79 -1 -83 -8z"/>
<path d="M1823 498 c2 -7 16 -13 32 -13 16 0 30 6 33 13 2 8 -8 12 -33 12 -25
0 -35 -4 -32 -12z"/>
<path d="M850 485 c0 -13 29 -15 200 -15 171 0 200 2 200 15 0 13 -29 15 -200
15 -171 0 -200 -2 -200 -15z"/>
<path d="M1360 445 c0 -13 37 -15 270 -15 233 0 270 2 270 15 0 12 -19 15
-115 15 -72 0 -122 -4 -134 -12 -15 -9 -25 -9 -46 0 -15 7 -72 12 -135 12 -91
0 -110 -3 -110 -15z"/>
<path d="M1150 395 c0 -11 7 -15 23 -13 12 2 22 8 22 13 0 6 -10 11 -22 13
-16 2 -23 -2 -23 -13z"/>
<path d="M1240 385 c0 -13 47 -15 365 -15 318 0 365 2 365 15 0 13 -47 15
-365 15 -318 0 -365 -2 -365 -15z"/>
</g>
</svg>
